<svg width="484" height="484" viewBox="0 0 484 484" fill="none" xmlns="http://www.w3.org/2000/svg">
<path d="M272.267 375.529C272.067 365.729 271.967 356.929 271.667 348.029C270.367 311.429 258.467 278.229 239.567 247.129C222.967 220.029 206.967 192.629 203.967 159.929C201.267 130.429 207.267 103.229 224.267 78.6295C225.667 76.5295 230.567 70.5295 231.267 71.0295C231.267 71.9295 230.267 73.7295 229.767 75.8295C217.667 119.229 223.767 159.329 250.067 196.429C258.467 208.229 265.367 221.229 272.767 233.729C284.967 254.629 286.967 277.629 286.767 301.129C286.467 326.029 273.067 374.329 272.267 375.529Z" fill="black"/>
<path d="M179.867 146.729C179.267 157.729 178.367 168.83 177.967 179.93C177.167 204.13 185.567 225.529 199.367 245.029C207.967 257.129 217.067 268.729 225.767 280.729C243.967 306.029 248.467 335.129 246.867 365.229C245.967 381.529 242.867 397.729 239.467 413.729C238.267 404.029 237.267 394.429 235.967 384.829C231.667 354.429 218.967 327.63 201.767 302.53C191.067 286.93 179.968 271.13 172.168 253.93C156.768 220.13 156.767 185.929 175.467 152.729C176.367 150.829 179.767 146.729 179.867 146.729Z" fill="black"/>
<path d="M314.367 278.929C311.867 265.329 310.367 251.029 306.467 237.329C301.767 220.629 290.567 207.329 279.967 193.829C266.767 177.029 258.567 158.429 260.867 136.429C262.467 120.929 268.568 107.429 279.568 95.0295C278.368 103.129 277.167 110.129 276.267 117.229C273.667 136.029 280.067 152.129 291.767 166.429C296.967 172.829 302.368 179.029 307.568 185.429C318.568 198.929 323.567 214.329 323.367 231.729C323.267 248.329 319.267 264.129 314.367 278.929Z" fill="black"/>
<circle cx="242" cy="242" r="212.5" stroke="black" stroke-width="5"/>
</svg>
