<svg width="1314" height="432" viewBox="0 0 1314 432" fill="none" xmlns="http://www.w3.org/2000/svg">
<path d="M174.516 190.099C183.51 198.701 188.008 211.418 188.008 228.249V296.603H177.84V228.623C177.84 214.504 174.125 203.751 166.792 196.364C159.459 188.977 149.389 185.236 136.582 185.236C123.383 185.236 112.726 189.351 104.612 197.673C96.5947 205.901 92.5862 218.151 92.5862 234.234V296.603H82.4183V179.532H92.5862V210.39C95.617 199.449 101.385 191.221 109.891 185.61C118.397 180 128.174 177.195 139.319 177.195C153.691 177.195 165.423 181.496 174.516 190.099Z" fill="black"/>
<path d="M307.578 281.081C315.986 275.096 321.07 266.961 322.927 256.582H333.486C331.238 269.112 325.078 279.21 315.106 286.784C305.133 294.452 292.326 298.192 276.879 298.192C265.342 298.192 255.076 295.761 246.082 290.992C237.087 286.13 230.146 279.21 224.964 270.14C219.88 261.07 217.338 250.41 217.338 237.974C217.338 225.725 219.88 215.065 224.964 205.995C230.048 196.925 237.087 190.005 246.082 185.143C255.076 180.281 265.244 177.943 276.879 177.943C288.806 177.943 298.974 180.374 307.675 185.143C316.279 190.005 322.829 196.27 327.327 204.125C331.726 211.979 333.975 220.301 333.975 229.278C333.975 232.831 333.584 236.665 332.802 240.686H227.506C227.701 251.626 230.048 260.79 234.643 268.177C239.238 275.564 245.202 281.081 252.437 284.54C259.769 288.094 267.786 289.87 276.487 289.87C288.806 290.057 299.17 287.065 307.578 281.081ZM252.534 191.408C245.202 194.961 239.14 200.478 234.643 207.771C230.048 215.065 227.701 224.135 227.506 234.982H324.1C324.687 224.229 322.829 215.065 318.43 207.678C314.03 200.291 308.164 194.774 300.832 191.314C293.499 187.761 285.482 185.984 276.879 185.984C268.079 185.984 259.867 187.855 252.534 191.408Z" fill="black"/>
<path d="M451.101 188.042C460.291 194.774 466.548 203.564 469.872 214.504V137.081H480.04V296.79H469.872V261.818C466.548 272.758 460.291 281.548 451.101 288.281C441.911 295.013 430.667 298.286 417.273 298.286C405.834 298.286 395.764 295.855 386.965 291.086C378.166 286.223 371.322 279.304 366.336 270.14C361.35 260.977 358.906 250.317 358.906 238.068C358.906 225.818 361.35 215.158 366.336 206.088C371.322 197.018 378.166 190.099 386.965 185.236C395.764 180.374 405.834 178.036 417.273 178.036C430.57 178.036 441.911 181.403 451.101 188.042ZM382.859 200.478C373.767 209.642 369.171 222.171 369.171 238.068C369.171 254.057 373.669 266.587 382.663 275.844C391.658 285.008 403.977 289.683 419.424 289.683C429.005 289.683 437.707 287.533 445.333 283.325C452.958 279.117 459.02 273.039 463.224 265.184C467.526 257.33 469.677 248.353 469.677 238.068C469.677 227.875 467.526 218.899 463.224 211.138C458.922 203.377 452.958 197.392 445.333 193.091C437.707 188.883 429.005 186.733 419.424 186.733C404.172 186.639 391.951 191.314 382.859 200.478Z" fill="black"/>
<path d="M617.795 179.532V296.696H607.432V266.026C604.401 276.779 598.633 285.008 590.127 290.618C581.621 296.229 571.844 299.034 560.699 299.034C546.425 299.034 534.79 294.732 525.698 286.13C516.605 277.527 512.206 264.717 512.206 247.699V179.532H522.178V247.512C522.178 261.444 525.893 272.104 533.226 279.584C540.559 286.971 550.629 290.712 563.436 290.712C576.83 290.712 587.487 286.597 595.504 278.275C603.521 270.047 607.432 257.797 607.432 241.714V179.532H617.795ZM601.566 148.021V155.595H528.24V148.021H601.566Z" fill="black"/>
<path d="M834.058 190.099C842.661 198.701 847.061 211.418 847.061 228.249V296.603H837.088V228.623C837.088 214.691 833.666 204.031 826.725 196.644C819.783 189.351 810.3 185.61 798.275 185.61C785.369 185.61 775.006 189.725 767.282 197.953C759.558 206.182 755.648 218.244 755.648 234.234V296.603H745.675V228.623C745.675 214.691 742.156 204.031 735.214 196.644C728.273 189.257 718.691 185.61 706.666 185.61C693.858 185.61 683.593 189.725 675.869 197.953C668.146 206.182 664.235 218.244 664.235 234.234V296.603H654.067V179.532H664.235V209.922C667.07 199.169 672.643 190.94 680.855 185.423C689.068 179.907 698.454 177.101 709.208 177.101C720.354 177.101 729.935 180 737.952 185.797C745.969 191.595 751.346 200.291 753.888 211.792C756.723 200.291 762.394 191.595 770.9 185.797C779.405 180 789.182 177.101 800.328 177.101C814.113 177.195 825.356 181.496 834.058 190.099Z" fill="black"/>
<path d="M968.097 185.236C977.288 190.099 984.425 197.018 989.606 206.088C994.788 215.158 997.428 225.818 997.428 238.068C997.428 250.41 994.788 261.164 989.606 270.234C984.425 279.304 977.19 286.223 968.097 291.086C958.907 295.948 948.544 298.286 937.007 298.286C925.568 298.286 915.303 295.855 906.113 291.086C896.922 286.223 889.688 279.304 884.408 270.14C879.129 260.977 876.489 250.317 876.489 238.068C876.489 225.818 879.129 215.158 884.408 206.088C889.688 197.018 896.922 190.099 906.113 185.236C915.303 180.374 925.568 178.036 937.007 178.036C948.544 178.036 959.005 180.468 968.097 185.236ZM912.272 192.249C904.646 195.99 898.584 201.694 893.892 209.361C889.199 217.029 886.852 226.566 886.852 237.974C886.852 249.382 889.199 258.92 893.892 266.681C898.584 274.442 904.646 280.239 912.272 283.979C919.898 287.72 928.11 289.59 937.007 289.59C945.904 289.59 954.117 287.72 961.742 283.979C969.368 280.239 975.43 274.442 980.123 266.681C984.816 258.92 987.162 249.382 987.162 237.974C987.162 226.566 984.913 217.122 980.318 209.361C975.723 201.694 969.662 195.99 962.036 192.249C954.41 188.509 946.1 186.639 937.105 186.639C928.11 186.639 919.898 188.509 912.272 192.249Z" fill="black"/>
<path d="M1181.52 340.551C1181.33 331.387 1181.23 323.158 1180.94 314.836C1179.67 280.613 1168.03 249.569 1149.55 220.488C1133.33 195.148 1117.68 169.527 1114.75 138.951C1112.11 111.366 1117.98 85.9325 1134.6 62.9299C1135.96 60.9662 1140.76 55.3559 1141.44 55.8234C1141.44 56.6649 1140.46 58.3481 1139.97 60.3117C1128.14 100.894 1134.11 138.39 1159.82 173.081C1168.03 184.114 1174.78 196.27 1182.01 207.958C1193.94 227.501 1195.9 249.008 1195.7 270.982C1195.41 294.265 1182.31 339.429 1181.52 340.551Z" fill="black"/>
<path d="M1091.19 126.608C1090.6 136.894 1089.72 147.273 1089.33 157.652C1088.55 180.281 1096.76 200.291 1110.25 218.525C1118.66 229.839 1127.56 240.686 1136.06 251.906C1153.86 275.564 1158.26 302.774 1156.69 330.919C1155.81 346.161 1152.78 361.309 1149.46 376.27C1148.28 367.2 1147.31 358.223 1146.03 349.247C1141.83 320.821 1129.41 295.761 1112.6 272.291C1102.14 257.704 1091.28 242.93 1083.66 226.847C1068.6 195.242 1068.6 163.262 1086.89 132.218C1087.77 130.442 1091.09 126.608 1091.19 126.608Z" fill="black"/>
<path d="M1222.68 250.223C1220.24 237.507 1218.77 224.135 1214.96 211.325C1210.37 195.709 1199.42 183.273 1189.05 170.649C1176.15 154.94 1168.13 137.548 1170.38 116.977C1171.94 102.483 1177.91 89.8598 1188.66 78.265C1187.49 85.839 1186.32 92.3844 1185.44 99.0234C1182.89 116.603 1189.15 131.657 1200.59 145.029C1205.67 151.013 1210.95 156.81 1216.04 162.795C1226.79 175.418 1231.68 189.818 1231.48 206.088C1231.39 221.61 1227.48 236.384 1222.68 250.223Z" fill="black"/>
</svg>
