<?xml version="1.0" encoding="utf-8"?>
<!-- Generator: Adobe Illustrator 21.0.1, SVG Export Plug-In . SVG Version: 6.00 Build 0)  -->
<svg version="1.1" id="Layer_1" xmlns="http://www.w3.org/2000/svg" xmlns:xlink="http://www.w3.org/1999/xlink" x="0px" y="0px"
	 viewBox="0 0 1344 462" style="enable-background:new 0 0 1344 462;" xml:space="preserve">
<g>
	<g>
		<path d="M178.5,203.3c9.2,9.2,13.8,22.8,13.8,40.8v73.1h-10.4v-72.7c0-15.1-3.8-26.6-11.3-34.5c-7.5-7.9-17.8-11.9-30.9-11.9
			c-13.5,0-24.4,4.4-32.7,13.3c-8.2,8.8-12.3,21.9-12.3,39.1v66.7H84.3V192h10.4v33c3.1-11.7,9-20.5,17.7-26.5c8.7-6,18.7-9,30.1-9
			C157.2,189.5,169.2,194.1,178.5,203.3z"/>
		<path d="M314.6,300.6c8.6-6.4,13.8-15.1,15.7-26.2h10.8c-2.3,13.4-8.6,24.2-18.8,32.3c-10.2,8.2-23.3,12.2-39.1,12.2
			c-11.8,0-22.3-2.6-31.5-7.7c-9.2-5.2-16.3-12.6-21.6-22.3c-5.2-9.7-7.8-21.1-7.8-34.4c0-13.1,2.6-24.5,7.8-34.2
			c5.2-9.7,12.4-17.1,21.6-22.3c9.2-5.2,19.6-7.7,31.5-7.7c12.2,0,22.6,2.6,31.5,7.7c8.8,5.2,15.5,11.9,20.1,20.3
			c4.5,8.4,6.8,17.3,6.8,26.9c0,3.8-0.4,7.9-1.2,12.2H232.7c0.2,11.7,2.6,21.5,7.3,29.4c4.7,7.9,10.8,13.8,18.2,17.5
			c7.5,3.8,15.7,5.7,24.6,5.7C295.4,310.2,306,307,314.6,300.6z M258.3,204.7c-7.5,3.8-13.7,9.7-18.3,17.5
			c-4.7,7.8-7.1,17.5-7.3,29.1h98.8c0.6-11.5-1.3-21.3-5.8-29.2c-4.5-7.9-10.5-13.8-18-17.5c-7.5-3.8-15.7-5.7-24.5-5.7
			C274.2,198.9,265.8,200.9,258.3,204.7z"/>
		<path d="M461.4,201.1c9.4,7.2,15.8,16.6,19.2,28.3v-82.8h10.4v170.8h-10.4v-37.4c-3.4,11.7-9.8,21.1-19.2,28.3
			c-9.4,7.2-20.9,10.7-34.6,10.7c-11.7,0-22-2.6-31-7.7c-9-5.2-16-12.6-21.1-22.4c-5.1-9.8-7.6-21.2-7.6-34.3
			c0-13.1,2.5-24.5,7.6-34.2s12.1-17.1,21.1-22.3c9-5.2,19.3-7.7,31-7.7C440.4,190.4,452,194,461.4,201.1z M391.6,214.4
			c-9.3,9.8-14,23.2-14,40.2c0,17.1,4.6,30.5,13.8,40.4c9.2,9.8,21.8,14.8,37.6,14.8c9.8,0,18.7-2.3,26.5-6.8
			c7.8-4.5,14-11,18.3-19.4c4.4-8.4,6.6-18,6.6-29c0-10.9-2.2-20.5-6.6-28.8c-4.4-8.3-10.5-14.7-18.3-19.3
			c-7.8-4.5-16.7-6.8-26.5-6.8C413.4,199.6,400.9,204.6,391.6,214.4z"/>
		<path d="M631.9,192v125.3h-10.6v-32.8c-3.1,11.5-9,20.3-17.7,26.3c-8.7,6-18.7,9-30.1,9c-14.6,0-26.5-4.6-35.8-13.8
			s-13.8-22.9-13.8-41.1V192h10.2v72.7c0,14.9,3.8,26.3,11.3,34.3c7.5,7.9,17.8,11.9,30.9,11.9c13.7,0,24.6-4.4,32.8-13.3
			c8.2-8.8,12.2-21.9,12.2-39.1V192H631.9z M615.3,158.3v8.1h-75v-8.1H615.3z"/>
		<path d="M853.1,203.3c8.8,9.2,13.3,22.8,13.3,40.8v73.1h-10.2v-72.7c0-14.9-3.5-26.3-10.6-34.2c-7.1-7.8-16.8-11.8-29.1-11.8
			c-13.2,0-23.8,4.4-31.7,13.2c-7.9,8.8-11.9,21.7-11.9,38.8v66.7h-10.2v-72.7c0-14.9-3.6-26.3-10.7-34.2s-16.9-11.8-29.2-11.8
			c-13.1,0-23.6,4.4-31.5,13.2c-7.9,8.8-11.9,21.7-11.9,38.8v66.7H669V192h10.4v32.5c2.9-11.5,8.6-20.3,17-26.2
			c8.4-5.9,18-8.9,29-8.9c11.4,0,21.2,3.1,29.4,9.3c8.2,6.2,13.7,15.5,16.3,27.8c2.9-12.3,8.7-21.6,17.4-27.8
			c8.7-6.2,18.7-9.3,30.1-9.3C832.7,189.5,844.2,194.1,853.1,203.3z"/>
		<path d="M990.2,198.1c9.4,5.2,16.7,12.6,22,22.3s8,21.1,8,34.2c0,13.2-2.7,24.7-8,34.4s-12.7,17.1-22,22.3
			c-9.4,5.2-20,7.7-31.8,7.7c-11.7,0-22.2-2.6-31.6-7.7c-9.4-5.2-16.8-12.6-22.2-22.4c-5.4-9.8-8.1-21.2-8.1-34.3
			c0-13.1,2.7-24.5,8.1-34.2c5.4-9.7,12.8-17.1,22.2-22.3c9.4-5.2,19.9-7.7,31.6-7.7C970.2,190.4,980.9,193,990.2,198.1z
			 M933.1,205.6c-7.8,4-14,10.1-18.8,18.3c-4.8,8.2-7.2,18.4-7.2,30.6c0,12.2,2.4,22.4,7.2,30.7c4.8,8.3,11,14.5,18.8,18.5
			c7.8,4,16.2,6,25.3,6c9.1,0,17.5-2,25.3-6c7.8-4,14-10.2,18.8-18.5c4.8-8.3,7.2-18.5,7.2-30.7c0-12.2-2.3-22.3-7-30.6
			c-4.7-8.2-10.9-14.3-18.7-18.3c-7.8-4-16.3-6-25.5-6C949.3,199.6,940.9,201.6,933.1,205.6z"/>
	</g>
	<g>
		<path d="M1208.5,364.2c-0.2-9.8-0.3-18.6-0.6-27.5c-1.3-36.6-13.2-69.8-32.1-100.9c-16.6-27.1-32.6-54.5-35.6-87.2
			c-2.7-29.5,3.3-56.7,20.3-81.3c1.4-2.1,6.3-8.1,7-7.6c0,0.9-1,2.7-1.5,4.8c-12.1,43.4-6,83.5,20.3,120.6
			c8.4,11.8,15.3,24.8,22.7,37.3c12.2,20.9,14.2,43.9,14,67.4C1222.7,314.7,1209.3,363,1208.5,364.2z"/>
		<path d="M1116.1,135.4c-0.6,11-1.5,22.1-1.9,33.2c-0.8,24.2,7.6,45.6,21.4,65.1c8.6,12.1,17.7,23.7,26.4,35.7
			c18.2,25.3,22.7,54.4,21.1,84.5c-0.9,16.3-4,32.5-7.4,48.5c-1.2-9.7-2.2-19.3-3.5-28.9c-4.3-30.4-17-57.2-34.2-82.3
			c-10.7-15.6-21.8-31.4-29.6-48.6c-15.4-33.8-15.4-68,3.3-101.2C1112.6,139.5,1116,135.4,1116.1,135.4z"/>
		<path d="M1250.6,267.6c-2.5-13.6-4-27.9-7.9-41.6c-4.7-16.7-15.9-30-26.5-43.5c-13.2-16.8-21.4-35.4-19.1-57.4
			c1.6-15.5,7.7-29,18.7-41.4c-1.2,8.1-2.4,15.1-3.3,22.2c-2.6,18.8,3.8,34.9,15.5,49.2c5.2,6.4,10.6,12.6,15.8,19
			c11,13.5,16,28.9,15.8,46.3C1259.5,237,1255.5,252.8,1250.6,267.6z"/>
	</g>
</g>
</svg>
